<?xml version="1.0" encoding="utf-8" ?><!-- created by svgstack.com | Attribution is required. --><svg xmlns="http://www.w3.org/2000/svg" xmlns:xlink="http://www.w3.org/1999/xlink" width="1023" height="1023"><path transform="scale(2 2)" d="M92.9878 213.99C85.5882 218.483 77.7633 226.06 70.1371 231.212C66.9407 233.371 63.7298 234.179 61.434 230.26C58.0307 224.451 73.0883 215.922 77.0483 212.875L204.091 114.157C217.272 103.692 230.414 93.1338 243.865 83.0206C247.526 80.2677 250.755 76.888 254.861 74.7941C258.469 74.1638 262.07 78.1404 264.685 80.1557L332.532 132.514C338.723 137.214 344.712 142.113 351.074 146.591L351.074 105.046C373.875 105.045 396.712 105.334 419.509 105.046L419.509 200.117L440.816 217.644C443.579 219.899 446.723 221.939 449.269 224.416C453.4 228.434 448.445 235.118 443.286 232.421C436.497 228.87 427.031 218.893 419.509 213.99L419.51 414.287C419.509 421.227 421.502 426.245 412.635 426.83C408.066 427.131 403.387 426.941 398.805 426.943L299.765 426.94L92.9878 426.94L92.9878 213.99ZM256.123 87.0677C247.076 93.7137 238.38 100.922 229.536 107.842L110.844 200.128C108.436 202.023 105.72 203.733 103.501 205.836L103.501 416.297L274.258 416.297L274.258 297.875L274.258 280.074L371.02 280.074L371.02 416.297L408.57 416.297L408.57 205.836C404.448 202.339 400.083 199.123 395.822 195.798L256.123 87.0677ZM362.244 115.802L362.244 155.987C370.581 163.307 379.715 169.488 388.397 176.35C394.573 181.231 402.204 188.424 408.57 192.604L408.57 115.802L362.244 115.802ZM284.725 290.587L284.714 403.401C284.712 407.635 284.374 412.096 284.725 416.297L360.673 416.297L360.673 290.587L310.202 290.579C301.732 290.578 293.184 290.328 284.725 290.587Z"/><path transform="scale(2 2)" d="M256.928 143.04L256.125 142.61C252.952 143.109 238.362 155.826 234.981 158.447L187.588 195.259C184.024 198.006 175.844 206.686 170.911 205.232C168.307 204.464 166.483 201.557 167.349 198.909C168.642 194.958 175.009 191.433 178.125 189.036L242.397 139.246C246.374 136.165 250.342 132.185 254.861 129.972C260.301 129.883 315.627 175.245 322.842 180.716C326.741 183.671 344.33 195.225 345.044 199.519C345.486 202.178 343.732 205.527 340.856 205.83C336.69 206.269 332.539 201.702 329.576 199.362L256.928 143.04Z"/><path transform="scale(2 2)" d="M141.252 364.646L141.252 280.074L237.519 280.074L237.519 364.646L141.252 364.646ZM172.373 290.587C165.505 290.588 158.622 290.693 151.756 290.587L151.756 316.565L185.73 316.565L185.73 326.999L151.756 326.999L151.756 354.094L204.934 354.094L227.17 354.094C227.05 345.066 227.184 336.028 227.17 326.999L195.715 326.999L195.715 316.565L216.685 316.581C220.142 316.583 223.731 316.801 227.17 316.565L227.17 290.587L172.373 290.587Z"/><path transform="scale(2 2)" d="M299.765 361.869L299.765 344.478L309.959 344.478L309.959 361.869L299.765 361.869Z"/></svg> 